<svg
    fill="black"
    viewBox="0 0 28 20"
    xmlns="http://www.w3.org/2000/svg"
>
    <path d="M15 1.10656V15.7228C15 15.7511 14.9886 15.7782 14.9683 15.7982L7.68468 22.9686C7.61653 23.0357 7.5 22.9882 7.5 22.8932V8.48999C7.5 8.43118 7.45149 8.38342 7.39176 8.38342H0.108244C0.0485095 8.38342 0 8.33567 0 8.27686V1.10656C0 1.04776 0.0485095 1 0.108244 1H14.8918C14.9515 1 15 1.04776 15 1.10656Z" fill="currentColor" stroke="currentColor" strokeWidth="0.25" strokeMiterlimit="10" />
    <path d="M23.9955 1.02615L17.0261 7.99548C17.0165 8.00511 17 7.99836 17 7.98459V1.01526C17 1.00676 17.0069 1 17.0153 1H23.9846C23.9983 1 24.0051 1.01651 23.9955 1.02615Z" fill="currentColor" stroke="currentColor" strokeWidth="0.25" strokeMiterlimit="10" />
</svg>