<svg width="25" height="25" viewBox="0 0 25 25" fill="none" xmlns="http://www.w3.org/2000/svg">
<path d="M20.2831 12.5557C20.4627 12.3672 20.5601 12.1152 20.5538 11.855C20.5476 11.5947 20.4382 11.3477 20.2499 11.168L14.5652 5.74968C14.4725 5.65812 14.3624 5.58595 14.2414 5.53739C14.1205 5.48883 13.991 5.46485 13.8607 5.46684C13.7304 5.46883 13.6017 5.49676 13.4823 5.549C13.3629 5.60123 13.2551 5.67673 13.1651 5.77108C13.0752 5.86543 13.005 5.97675 12.9585 6.09854C12.9121 6.22032 12.8903 6.35014 12.8946 6.48042C12.8989 6.6107 12.929 6.73882 12.9833 6.85731C13.0376 6.97581 13.115 7.0823 13.2109 7.17058L17.1802 10.954L4.18416 11.2656C3.92389 11.2719 3.67676 11.3812 3.49713 11.5697C3.31751 11.7581 3.2201 12.0102 3.22635 12.2705C3.23259 12.5308 3.34196 12.7779 3.53042 12.9575C3.71887 13.1371 3.97096 13.2346 4.23123 13.2283L17.2272 12.9167L13.4439 16.8859C13.2695 17.0753 13.1766 17.3256 13.185 17.5828C13.1934 17.8401 13.3025 18.0837 13.4888 18.2613C13.6751 18.4389 13.9237 18.5362 14.1811 18.5323C14.4385 18.5283 14.684 18.4235 14.8648 18.2403L20.2831 12.5557Z" fill="#5A39CA"/>
</svg>
