<svg width="22" height="22" viewBox="0 0 22 22" fill="none" xmlns="http://www.w3.org/2000/svg">
<path d="M19.236 15.4091L16.4488 12.6178L14.3049 11.7308C15.0187 10.7142 15.4012 9.50139 15.3998 8.2586C15.3998 4.91784 12.6858 2.19995 9.34979 2.19995C6.01381 2.19995 3.2998 4.91784 3.2998 8.2586C3.2998 11.5994 6.01381 14.3173 9.34979 14.3173C10.6016 14.3187 11.8227 13.9291 12.8429 13.2027L13.7264 15.3439L16.5135 18.1353C16.6923 18.3143 16.9045 18.4563 17.138 18.5532C17.3716 18.6501 17.6219 18.6999 17.8747 18.7C18.1275 18.7 18.3778 18.6501 18.6114 18.5532C18.845 18.4564 19.0572 18.3144 19.2359 18.1354C19.4147 17.9564 19.5565 17.7438 19.6532 17.51C19.75 17.2761 19.7998 17.0254 19.7998 16.7722C19.7998 16.5191 19.75 16.2684 19.6533 16.0345C19.5566 15.8006 19.4148 15.5881 19.236 15.4091ZM4.3998 8.2586C4.3998 5.52532 6.62042 3.30152 9.34979 3.30152C12.0792 3.30152 14.2998 5.52532 14.2998 8.2586C14.2998 10.9919 12.0792 13.2157 9.34979 13.2157C6.62042 13.2157 4.3998 10.9919 4.3998 8.2586ZM18.4581 17.3564C18.3033 17.5111 18.0935 17.598 17.8748 17.598C17.656 17.598 17.4462 17.5111 17.2914 17.3564L14.6592 14.7204L13.8379 12.7295L15.826 13.552L18.4582 16.188C18.6127 16.343 18.6994 16.5531 18.6994 16.7722C18.6994 16.9912 18.6126 17.2013 18.4581 17.3564Z" fill="#131313"/>
</svg>
