<svg width="22" height="22" viewBox="0 0 22 22" fill="none" xmlns="http://www.w3.org/2000/svg">
<path d="M19.6961 18.3048C18.3375 15.9569 16.2045 14.3095 13.7261 13.6108C14.931 12.9983 15.8946 11.9978 16.4614 10.7707C17.0282 9.54354 17.1651 8.16127 16.8502 6.84675C16.5353 5.53224 15.7868 4.36209 14.7255 3.525C13.6642 2.68791 12.3518 2.23267 11.0001 2.23267C9.64842 2.23267 8.3361 2.68791 7.27477 3.525C6.21345 4.36209 5.46498 5.53224 5.15005 6.84675C4.83512 8.16127 4.9721 9.54354 5.53888 10.7707C6.10566 11.9978 7.06922 12.9983 8.27419 13.6108C5.79575 14.3087 3.66279 15.9561 2.30411 18.3048C2.26681 18.3634 2.24176 18.4291 2.23047 18.4977C2.21918 18.5663 2.22189 18.6365 2.23844 18.704C2.25498 18.7716 2.28502 18.8351 2.32674 18.8907C2.36846 18.9464 2.42101 18.993 2.48122 19.0278C2.54142 19.0626 2.60805 19.0848 2.67708 19.0932C2.74612 19.1016 2.81613 19.096 2.88292 19.0766C2.94971 19.0572 3.01189 19.0245 3.06572 18.9805C3.11955 18.9365 3.16391 18.882 3.19615 18.8204C4.847 15.9681 7.76372 14.2657 11.0001 14.2657C14.2365 14.2657 17.1533 15.9681 18.8041 18.8204C18.8364 18.882 18.8807 18.9365 18.9345 18.9805C18.9884 19.0245 19.0506 19.0572 19.1173 19.0766C19.1841 19.096 19.2541 19.1016 19.3232 19.0932C19.3922 19.0848 19.4588 19.0626 19.519 19.0278C19.5793 18.993 19.6318 18.9464 19.6735 18.8907C19.7152 18.8351 19.7453 18.7716 19.7618 18.704C19.7784 18.6365 19.7811 18.5663 19.7698 18.4977C19.7585 18.4291 19.7335 18.3634 19.6961 18.3048ZM6.01576 8.25006C6.01576 7.26425 6.30808 6.30057 6.85577 5.4809C7.40346 4.66122 8.18192 4.02236 9.09269 3.6451C10.0035 3.26785 11.0057 3.16914 11.9725 3.36146C12.9394 3.55379 13.8275 4.0285 14.5246 4.72558C15.2217 5.42266 15.6964 6.31079 15.8887 7.27766C16.0811 8.24454 15.9824 9.24673 15.6051 10.1575C15.2278 11.0683 14.589 11.8467 13.7693 12.3944C12.9496 12.9421 11.9859 13.2344 11.0001 13.2344C9.67868 13.2328 8.41181 12.7072 7.4774 11.7728C6.543 10.8384 6.01735 9.57151 6.01576 8.25006Z" fill="#131313"/>
</svg>
